<svg width="24" height="24" viewBox="0 0 24 24" fill="#000" xmlns="http://www.w3.org/2000/svg">
<path fill-rule="evenodd" clip-rule="evenodd" d="M8.5 4C8.5 3.17157 9.17157 2.5 10 2.5H14C14.8284 2.5 15.5 3.17157 15.5 4V5.5H8.5V4ZM7.5 5.5V4C7.5 2.61929 8.61929 1.5 10 1.5H14C15.3807 1.5 16.5 2.61929 16.5 4V5.5H19H21C21.2761 5.5 21.5 5.72386 21.5 6C21.5 6.27614 21.2761 6.5 21 6.5H19.5V20C19.5 21.3807 18.3807 22.5 17 22.5H7C5.61929 22.5 4.5 21.3807 4.5 20V6.5H3C2.72386 6.5 2.5 6.27614 2.5 6C2.5 5.72386 2.72386 5.5 3 5.5H5H7.5ZM5.5 6.5H8H16H18.5V20C18.5 20.8284 17.8284 21.5 17 21.5H7C6.17157 21.5 5.5 20.8284 5.5 20V6.5ZM10 10.5C10.2761 10.5 10.5 10.7239 10.5 11V17C10.5 17.2761 10.2761 17.5 10 17.5C9.72386 17.5 9.5 17.2761 9.5 17V11C9.5 10.7239 9.72386 10.5 10 10.5ZM14.5 11C14.5 10.7239 14.2761 10.5 14 10.5C13.7239 10.5 13.5 10.7239 13.5 11V17C13.5 17.2761 13.7239 17.5 14 17.5C14.2761 17.5 14.5 17.2761 14.5 17V11Z" />
</svg>
