<svg width="21" height="24" viewBox="0 0 21 24" fill="#000" xmlns="http://www.w3.org/2000/svg">
<path fill-rule="evenodd" clip-rule="evenodd" d="M9 3.5C4.81804 3.5 1.5 6.61117 1.5 10.3636C1.5 13.0103 3.36425 15.5431 5.34842 17.4709C6.32745 18.4221 7.30848 19.1999 8.04558 19.7402C8.4137 20.01 8.71986 20.2198 8.93305 20.3615C8.95651 20.3771 8.97884 20.3918 9 20.4058C9.02115 20.3918 9.04349 20.3771 9.06695 20.3615C9.28014 20.2198 9.5863 20.01 9.95442 19.7402C10.6915 19.1999 11.6726 18.4221 12.6516 17.4709C14.6358 15.5431 16.5 13.0103 16.5 10.3636C16.5 6.61117 13.182 3.5 9 3.5ZM9 21C8.73849 21.4262 8.73835 21.4261 8.73818 21.426L8.73769 21.4257L8.73616 21.4247L8.73094 21.4215L8.712 21.4097C8.69565 21.3995 8.67195 21.3846 8.64138 21.3651C8.58025 21.3261 8.49163 21.2688 8.37945 21.1943C8.15514 21.0452 7.8363 20.8266 7.45442 20.5467C6.69152 19.9876 5.67255 19.1801 4.65158 18.1882C2.63575 16.2296 0.5 13.4442 0.5 10.3636C0.5 5.98246 4.34541 2.5 9 2.5C13.6546 2.5 17.5 5.98246 17.5 10.3636C17.5 13.4442 15.3642 16.2296 13.3484 18.1882C12.3274 19.1801 11.3085 19.9876 10.5456 20.5467C10.1637 20.8266 9.84486 21.0452 9.62055 21.1943C9.50837 21.2688 9.41975 21.3261 9.35862 21.3651C9.32805 21.3846 9.30435 21.3995 9.288 21.4097L9.26906 21.4215L9.26384 21.4247L9.26231 21.4257L9.26182 21.426C9.26165 21.4261 9.26151 21.4262 9 21ZM9 21L9.26151 21.4262C9.10107 21.5246 8.89893 21.5246 8.73849 21.4262L9 21Z"/>
<path fill-rule="evenodd" clip-rule="evenodd" d="M5.5 11C5.5 9.067 7.067 7.5 9 7.5C10.933 7.5 12.5 9.067 12.5 11C12.5 12.933 10.933 14.5 9 14.5C7.067 14.5 5.5 12.933 5.5 11ZM9 8.5C7.61929 8.5 6.5 9.61929 6.5 11C6.5 12.3807 7.61929 13.5 9 13.5C10.3807 13.5 11.5 12.3807 11.5 11C11.5 9.61929 10.3807 8.5 9 8.5Z"/>
</svg>
