<svg xmlns="http://www.w3.org/2000/svg" xml:space="preserve" width="28" height="28" fill='#000' style="shape-rendering:geometricPrecision;text-rendering:geometricPrecision;image-rendering:optimizeQuality;fill-rule:evenodd;clip-rule:evenodd" viewBox="0 0 152.52 121.449">
  <path d="M40.457 17.578C63.009-1.171 96.567.597 116.998 22.206a2.328 2.328 0 0 0 3.293.092c.931-.88.977-2.344.105-3.28l-.015-.016C97.343-5.363 58.903-6.44 34.538 16.598a60.76 60.76 0 0 0-18.909 40.763l-.477 8.611L4.025 54.204a2.332 2.332 0 0 0-3.388 3.202l16.601 17.557a2.33 2.33 0 0 0 3.293.092l17.558-16.6a2.33 2.33 0 1 0-3.201-3.386L20.146 69.008l.053-8.69a55.916 55.916 0 0 1 17.493-40.284l.051-.048 2.633-2.49.081.082zm-8.333 84.853.016.016c23.037 24.365 61.477 25.442 85.842 2.404a60.76 60.76 0 0 0 18.909-40.763l.477-8.611 11.127 11.768a2.33 2.33 0 0 0 3.388-3.202l-16.601-17.557a2.328 2.328 0 0 0-3.293-.093l-17.557 16.601a2.33 2.33 0 1 0 3.2 3.386l14.754-13.95-.065 8.706a56.108 56.108 0 0 1-17.545 40.324c-22.494 21.268-57.983 20.28-79.252-2.215a2.329 2.329 0 0 0-3.4 3.186z"/>
</svg>
